<svg xmlns="http://www.w3.org/2000/svg" viewBox="0 0 200 200" width="200" height="200"><circle cx="100" cy="104" r="92" fill="#7F6A4A" opacity="0.16"/><circle cx="100" cy="104" r="92" fill="none" stroke="#7F6A4A" stroke-opacity="0.45" stroke-width="2"/><path d="M78 40 Q84 20 92 38 Q100 16 108 38 Q116 20 122 40Z" fill="#E0563E"/><rect x="64" y="126" width="72" height="62" rx="24" fill="#BFA97F"/><rect x="88" y="118" width="24" height="16" rx="8" fill="#E9B99A"/><rect x="56" y="140" width="20" height="36" rx="10" fill="#F6D6BD" transform="rotate(-30 66 158)"/><rect x="124" y="140" width="20" height="36" rx="10" fill="#F6D6BD" transform="rotate(30 134 158)"/><circle cx="52" cy="92" r="9" fill="#F6D6BD"/><circle cx="148" cy="92" r="9" fill="#F6D6BD"/><circle cx="100" cy="88" r="50" fill="#F6D6BD"/><path d="M50 90 Q50 36 100 36 Q150 36 150 90 Q150 66 100 62 Q50 66 50 90Z" fill="#8C6A4A"/><path d="M74 92 L90 92 M110 92 L126 92" stroke="#2A2320" stroke-width="4" stroke-linecap="round"/><path d="M92 114 Q100 108 108 114" fill="none" stroke="#2A2320" stroke-width="3" stroke-linecap="round"/><circle cx="100" cy="160" r="20" fill="#F2B705" stroke="#B8860B" stroke-width="3"/><circle cx="100" cy="160" r="12" fill="none" stroke="#B8860B" stroke-width="2"/><circle cx="76" cy="164" r="10" fill="#F6D6BD"/><circle cx="124" cy="164" r="10" fill="#F6D6BD"/></svg>