<svg xmlns="http://www.w3.org/2000/svg" viewBox="0 0 200 200" width="200" height="200"><circle cx="100" cy="104" r="92" fill="#A08C7A" opacity="0.16"/><circle cx="100" cy="104" r="92" fill="none" stroke="#A08C7A" stroke-opacity="0.45" stroke-width="2"/><rect x="64" y="126" width="72" height="62" rx="24" fill="#C9B79C"/><rect x="88" y="118" width="24" height="16" rx="8" fill="#E9B99A"/><circle cx="52" cy="92" r="9" fill="#F6D6BD"/><circle cx="148" cy="92" r="9" fill="#F6D6BD"/><circle cx="100" cy="88" r="50" fill="#F6D6BD"/><path d="M50 90 Q50 36 100 36 Q150 36 150 90 Q150 66 100 62 Q50 66 50 90Z" fill="#6B4F3A"/><path d="M66 44 L60 24 L74 40Z M98 38 L104 16 L112 38Z M128 44 L140 28 L134 46Z" fill="#6B4F3A"/><path d="M74 92 Q82 98 90 92" fill="none" stroke="#2A2320" stroke-width="3.5" stroke-linecap="round"/><path d="M110 92 Q118 98 126 92" fill="none" stroke="#2A2320" stroke-width="3.5" stroke-linecap="round"/><path d="M96 112 L104 112" stroke="#2A2320" stroke-width="2.5" stroke-linecap="round"/><path d="M58 132 Q100 118 142 132 L146 190 L54 190Z" fill="#8FB3D9"/><path d="M58 150 L142 150 M58 168 L142 168" stroke="#FFFFFF" stroke-opacity="0.5" stroke-width="3"/></svg>