<svg xmlns="http://www.w3.org/2000/svg" viewBox="0 0 200 200" width="200" height="200"><circle cx="100" cy="104" r="92" fill="#4F9D69" opacity="0.16"/><circle cx="100" cy="104" r="92" fill="none" stroke="#4F9D69" stroke-opacity="0.45" stroke-width="2"/><rect x="64" y="126" width="72" height="62" rx="24" fill="#7FC8A9"/><rect x="88" y="118" width="24" height="16" rx="8" fill="#E9B99A"/><rect x="56" y="140" width="20" height="36" rx="10" fill="#F6D6BD" transform="rotate(-30 66 158)"/><rect x="124" y="140" width="20" height="36" rx="10" fill="#F6D6BD" transform="rotate(30 134 158)"/><circle cx="52" cy="92" r="9" fill="#F6D6BD"/><circle cx="148" cy="92" r="9" fill="#F6D6BD"/><circle cx="100" cy="88" r="50" fill="#F6D6BD"/><path d="M50 96 Q48 34 100 34 Q152 34 150 96 L150 104 Q146 70 100 66 Q54 70 50 104Z" fill="#3B2A22"/><ellipse cx="82" cy="92" rx="7" ry="8" fill="#FFFFFF"/><ellipse cx="118" cy="92" rx="7" ry="8" fill="#FFFFFF"/><circle cx="86" cy="93" r="4" fill="#2A2320"/><circle cx="122" cy="93" r="4" fill="#2A2320"/><ellipse cx="100" cy="113" rx="5" ry="6" fill="#2A2320"/><path d="M62 158 A38 38 0 0 0 138 158Z" fill="#E8503A"/><path d="M58 158 A42 42 0 0 0 142 158 L138 158 A38 38 0 0 1 62 158Z" fill="#3E9A5A"/><ellipse cx="86" cy="172" rx="2.5" ry="4" fill="#2A2320"/><ellipse cx="100" cy="180" rx="2.5" ry="4" fill="#2A2320"/><ellipse cx="114" cy="172" rx="2.5" ry="4" fill="#2A2320"/><circle cx="64" cy="164" r="9" fill="#F6D6BD"/><circle cx="136" cy="164" r="9" fill="#F6D6BD"/></svg>