<svg xmlns="http://www.w3.org/2000/svg" viewBox="0 0 200 200" width="200" height="200"><circle cx="100" cy="104" r="92" fill="#2E86AB" opacity="0.16"/><circle cx="100" cy="104" r="92" fill="none" stroke="#2E86AB" stroke-opacity="0.45" stroke-width="2"/><rect x="128" y="28" width="50" height="36" rx="12" fill="#FFFFFF" stroke="#2A2320" stroke-width="2"/><path d="M140 62 L136 74 L150 66Z" fill="#FFFFFF" stroke="#2A2320" stroke-width="2"/><path d="M140 62 L136 74 L150 66Z" fill="#FFFFFF"/><rect x="150" y="34" width="6" height="16" rx="3" fill="#C0392B"/><circle cx="153" cy="57" r="3.5" fill="#C0392B"/><rect x="64" y="126" width="72" height="62" rx="24" fill="#7EB6D9"/><rect x="88" y="118" width="24" height="16" rx="8" fill="#E9B99A"/><rect x="62" y="146" width="46" height="18" rx="9" fill="#F6D6BD" transform="rotate(-14 85 155)"/><rect x="92" y="146" width="46" height="18" rx="9" fill="#F6D6BD" transform="rotate(14 115 155)"/><circle cx="52" cy="92" r="9" fill="#F6D6BD"/><circle cx="148" cy="92" r="9" fill="#F6D6BD"/><circle cx="100" cy="88" r="50" fill="#F6D6BD"/><path d="M50 90 Q50 36 100 36 Q150 36 150 90 Q150 66 100 62 Q50 66 50 90Z" fill="#2E4A62"/><path d="M104 38 Q112 14 126 30" fill="none" stroke="#2E4A62" stroke-width="7" stroke-linecap="round"/><ellipse cx="82" cy="92" rx="6" ry="8" fill="#2A2320"/><circle cx="84" cy="89" r="2" fill="#FFFFFF"/><ellipse cx="118" cy="92" rx="6" ry="8" fill="#2A2320"/><circle cx="120" cy="89" r="2" fill="#FFFFFF"/><path d="M70 76 L92 84 M130 76 L108 84" stroke="#2A2320" stroke-width="4" stroke-linecap="round"/><ellipse cx="100" cy="114" rx="8" ry="7" fill="#2A2320"/><ellipse cx="100" cy="117" rx="5" ry="3" fill="#E8567C"/></svg>